<?xml version="1.0" encoding="UTF-8" standalone="no"?>
<!DOCTYPE svg PUBLIC "-//W3C//DTD SVG 1.1//EN" "http://www.w3.org/Graphics/SVG/1.1/DTD/svg11.dtd">
<!-- Created with Vectornator (http://vectornator.io/) -->
<svg height="100%" stroke-miterlimit="10" style="fill-rule:nonzero;clip-rule:evenodd;stroke-linecap:round;stroke-linejoin:round;" version="1.1" viewBox="0 0 1280 640" width="100%" xml:space="preserve" xmlns="http://www.w3.org/2000/svg" xmlns:xlink="http://www.w3.org/1999/xlink">
<defs/>
<g id="Untitled">
<g opacity="1">
<path d="M487.5 3.89999C482.6 4.19999 477.6 4.99999 476.5 5.59999C475.4 6.19999 467.5 6.99999 459 7.29999C444.9 7.79999 421.2 10.5 420 11.8C419.7 12 420.1 12.5 420.8 12.7C422.1 13.2 422.5 16 421.3 16C420.8 16.1 415.6 16.7 409.6 17.4C398 18.9 395.5 20.2 398.9 23.1C400.7 24.6 403.7 25.3 418.3 27.9C428.2 29.7 432.4 34.4 428.5 39.6C426.3 42.6 426.7 43.6 430.8 44.7L434.5 45.7L430.3 46.5C426.9 47.1 426 47.7 426 49.3C426 51 426.5 51.2 429.4 50.7C432.2 50.3 432.8 50.4 432.3 51.6C432 52.4 430.8 53 429.5 53C428.1 53 426.2 54.3 424.6 56.4C422.3 59.5 422 60.7 422 68.6C422 80 424.4 89 427.4 89C428.5 89 431 89.9 432.9 91.1C437.9 94.1 442.1 93.1 446.3 87.6C448.1 85.2 452.4 80.2 455.8 76.5L462 69.7L471.8 67.5C478.9 65.9 483.1 64.3 487 61.7C492.3 58.2 514.8 50.5 521.5 49.8C524.3 49.5 524.5 49.2 524.8 45.3C525.1 40.8 527.2 38.4 534.1 34.7C536.5 33.3 537 32.6 536.1 32C534.3 31 535.5 26 537.5 26C539.8 26 540.2 24.2 538.5 21.1C536.8 17.7 536.6 17.8 544.5 15.2C547.8 14.1 553 12 556 10.5L561.5 7.89999L554.5 8.49999C550.7 8.79999 546.5 9.29999 545.3 9.59999C544.1 9.79999 542.8 9.39999 542.3 8.59999C541.9 7.89999 537.3 6.29999 532.2 5.09999C522.5 2.89999 508.9 2.59999 487.5 3.89999Z" fill="#f5891d" fill-rule="nonzero" opacity="1" stroke="none"/>
<path d="M391 6.09999C383.2 7.49999 357.1 9.99999 355.6 9.39999C354.8 9.09999 352.3 10.1 349.9 11.7C347 13.6 345.5 14.1 345.2 13.2C344.4 10.7 343 12.1 343 15.4C343 19.8 346 22.2 350.3 21.3C356.1 20.1 352.1 22.9 344.9 25C338.6 26.9 337.6 27 336.2 25.6C335.2 24.8 332.7 24 330.5 23.8C326.8 23.5 326.5 23.7 326 26.5C325.6 29 325 29.5 322.5 29.5C320.3 29.5 319.6 29.1 319.8 27.8C320.1 25.9 319.6 25.5 315.5 24.6C312.9 24 312.2 24.3 310.6 27C309.6 28.7 309 30.3 309.3 30.6C309.5 30.9 313.7 31.5 318.6 32.1L327.5 33.1L329.6 30.4C331.7 27.8 334.4 27.8 333.4 30.3C332.6 32.5 344.3 34.2 351.3 33.1C354.5 32.5 358.4 32.3 359.8 32.6C362.7 33.2 367.1 30.7 365.7 29.4C365.3 29 360.7 28.6 355.5 28.5C347.1 28.5 346.2 28.3 347.6 27C348.7 25.9 351.6 25.5 358.9 25.4C364.2 25.4 369.1 25 369.7 24.7C370.3 24.3 371.5 24.3 372.4 24.6C373.2 24.9 378.3 23.1 383.7 20.5C389.1 17.9 396.7 14.9 400.5 13.9C407 12.1 410.5 11.3 427.8 7.89999C431.2 7.19999 434 6.39999 434 6.09999C434 5.19999 396 5.19999 391 6.09999Z" fill="#f5891d" fill-rule="nonzero" opacity="1" stroke="none"/>
<path d="M332.3 16C330.3 16.8 330.1 17.2 331.1 19.4C333.4 24.5 337.8 23.8 337.2 18.5C336.8 14.9 336 14.5 332.3 16Z" fill="#f5891d" fill-rule="nonzero" opacity="1" stroke="none"/>
<path d="M292.7 17.6C291.1 18.4 289 20 287.9 21.1C286 23 286 23 288.8 23C292.1 23 298.3 19.4 297.8 17.8C297.2 16 295.8 15.9 292.7 17.6Z" fill="#f5891d" fill-rule="nonzero" opacity="1" stroke="none"/>
<path d="M313.7 16.7C312.2 18.2 313.3 19 318.5 20.5C322.6 21.7 324.4 21.9 326 21C328.8 19.5 327.9 18.5 322.6 17.1C317.5 15.8 314.6 15.7 313.7 16.7Z" fill="#f5891d" fill-rule="nonzero" opacity="1" stroke="none"/>
<path d="M265 23.2C260.9 24.3 255.8 25.4 253.8 25.7C249.2 26.3 249.8 28 254.6 28C256.7 28 258.8 28.8 260 30C261.1 31.1 262.9 32 263.9 32C265 32 267.2 32.8 268.8 33.7C271.6 35.3 272.1 35.3 277 33.7C279.9 32.8 284.5 32 287.2 32C292.2 32 296 30.7 296 29C296 28.4 295.3 28 294.4 28C293.4 28 293 27.4 293.4 26.5C294.2 24.4 291.8 24.6 287.5 27.1C283.8 29.3 282.4 29.3 275.6 26.7C273.4 25.9 272.2 25 272.9 24.6C274.1 23.8 274.4 20.9 273.3 21.1C272.8 21.2 269.1 22.1 265 23.2Z" fill="#f5891d" fill-rule="nonzero" opacity="1" stroke="none"/>
<path d="M872 22.9C870.6 23.3 869.5 24.1 869.5 24.8C869.5 27 866.7 28 860.4 28C854 28 838.6 30.5 836 32C834.7 32.8 834.7 33 836.3 33.5C840 35 837.6 36 830.3 36L822.5 36.1L826 39C827.9 40.7 830.6 42 832 42C834.3 42.1 834.3 42.2 832.6 43.2C831.2 44 829.9 43.9 827.3 42.6C824 41 816.9 40.4 815.7 41.6C814.6 42.8 816.2 45 818.3 45C819.8 45 820.1 45.3 819.3 46.1C817.4 48 814.1 46 812 41.9C810.9 39.7 809.2 38 808.3 38C806.9 38 807 38.4 808.9 40.4C810.8 42.4 810.9 42.8 809.6 43.3C807.3 44.2 807.7 46.4 810.3 47.5C811.5 48.1 812.6 49.5 812.8 50.7C813.3 54.2 815.5 55.4 819.2 54.1C821.3 53.3 822.7 53.3 823.4 54C824.4 55 823.1 55.4 820.3 55.1C818.5 54.9 817.7 56.9 818.9 58.4C820.9 60.8 818.2 65 814.8 65C811.8 65 811 63.6 813.5 62.6C815.7 61.8 815.4 56.7 813 55.2C811.9 54.6 810.2 52.3 809.1 50.1C808 48 806.4 46 805.5 45.7C804.7 45.3 804 43.9 804 42.5C804 40.7 803.5 40 802.1 40C801 40 799.4 39.3 798.6 38.4C796.2 36 793.2 37.5 792.4 41.5C792.1 43.3 791.1 45.1 790.3 45.5C788.9 46 788.9 46.2 790.2 47.8C791 48.7 792 50.2 792.3 51.2C792.6 52.1 794.3 53.1 796 53.5C798.8 54.1 801 56.4 799.8 57.5C799.6 57.7 796 56.8 791.9 55.4C787.9 54 782 52.6 779 52.3C776 52 772.5 51.1 771.3 50.4C770.1 49.6 768.4 49 767.5 49C764.7 49 766 50.7 770.1 52.3C773.8 53.7 774.1 54.2 773 55.5C771.8 57 771.5 56.9 770.6 55.1C769.7 53.5 769.1 53.3 767.5 54.2C766.4 54.9 764 55.7 762 56.1C760.1 56.4 757.7 57.1 756.8 57.5C755.5 58 755 57.7 755 56.6C755 55.7 754.3 55 753.4 55C750.9 55 738.6 60.1 737.4 61.6C736.2 63.1 732.8 63.5 731.7 62.3C731.3 62 731.5 61.1 732.1 60.3C733.9 58.2 731.3 56 727 56L723.2 56L725.6 60.6C728.3 65.8 728.1 66.8 724.7 65.3C722.9 64.5 721.9 64.6 720.1 66.1C718.8 67.2 717.1 68 716.3 68C715.3 68 715.1 68.6 715.5 69.9C716.1 72 714.5 73.7 713.5 72C712.7 70.7 705 70.7 705 72C705 72.5 706.1 73.2 707.5 73.6C708.9 73.9 710 74.7 710 75.2C710 76.5 705.4 75.4 701.5 73.1C699.8 72.1 698.5 70.6 698.5 69.4C698.5 68.4 697.6 67 696.5 66.3C694.6 65.1 694.6 65.1 697 65.1C698.4 65.1 702 65.5 705 65.9C712 67 718 65 718 61.6C718 59.6 717.2 59.1 712.3 58.1C709.1 57.4 701.6 55.5 695.7 53.9C689.7 52.2 684.2 51.1 683.3 51.4C682.3 51.8 682 51.5 682.5 50.1C683 48.5 682.3 48 678.3 47.2C675 46.5 673.1 46.5 672.3 47.2C671.5 47.8 669.2 48 666.7 47.7C661.9 47 650.5 49.6 639.3 53.8C632.4 56.4 630.2 58 633.5 58C634.3 58 635 58.4 635 59C635 60 629.9 65 628.9 65C628 65 624 71.8 624 73.2C624 75.6 620.8 78 619 77C613.9 74.3 603 82.1 603 88.6C603 90.5 603.6 92.3 604.3 92.6C605.1 92.9 605.5 94.2 605.2 95.9C604.9 98.3 605.3 98.9 608.3 100.3C612.8 102.5 612.7 102.5 617.9 99C622.9 95.6 624 95.3 624 97.5C624 98.4 625.1 100.8 626.5 102.9C629.1 106.7 629 110 626.5 110C625.8 110 624.5 110.3 623.7 110.6C622.5 111 622.3 110.6 622.7 109.2C622.9 108.1 622.7 106.9 622.1 106.6C621.6 106.2 621.3 105.3 621.7 104.5C622.6 102 618.2 102.7 615.5 105.5C612.6 108.3 612.4 110.9 614.6 115.2C616.5 119 615.7 120 609.9 120.7C603.4 121.5 600.2 123.5 599.8 126.7C599.6 129 598.5 130 594.2 132C591.4 133.4 588.7 135.3 588.4 136.3C588.1 137.3 586.4 138.7 584.7 139.4C582 140.5 581.1 140.5 578.8 139.3C575.7 137.8 575.6 137.9 576.9 141.3C577.8 143.7 577.8 143.8 574 143.3C569.6 142.7 565 143.6 565 145C565 145.5 567.1 147.1 569.8 148.4C575.8 151.4 578.4 156.2 577.4 162.6C577 165.5 576.2 167.1 575 167.5C572.4 168.3 556.7 167.8 554.7 166.8C553.5 166.2 551.8 166.3 549.9 167.2C547 168.5 546.9 168.7 547.5 173.5C547.9 177.1 547.6 180 546.1 184C544.8 187.7 544.5 190 545.1 191.2C545.6 192.1 546 194.1 546 195.5C546 198 546.2 198.1 549.9 197.5C553.5 196.9 553.9 197.1 555.7 200.2C557.5 203.3 557.6 203.7 556 207.2C555 209.6 552.3 212.4 548.9 214.9C542.8 219.3 541 222.2 541 227.9C541 231.2 540.3 232.4 536 236.4C533.3 238.9 530.2 241 529.1 241C528 241 526.5 242 525.9 243.2C525.2 244.5 523.2 247.2 521.3 249.3C519.4 251.4 518.1 253.8 518.4 254.5C518.6 255.2 517.6 257 516 258.5C514.5 260 512.9 262.7 512.6 264.5C512.2 266.3 511.3 268.3 510.5 269C508.6 270.6 508.6 275 510.4 277.6C511.4 278.9 511.5 279.9 510.8 280.7C510.2 281.5 510.2 282.5 510.9 283.9C511.5 285 512 287.1 512 288.7C511.9 292.4 508.5 302.3 507.1 302.8C505.4 303.4 505.8 305.7 507.6 306.4C508.8 306.9 509.1 307.8 508.6 310.4C507.8 314.8 509.4 318.8 512.4 319.9C515.8 321.2 521.6 328.7 523.1 333.8C524.4 338.4 525.7 339.6 538.7 348.8L545.9 353.9L550.2 352C554.9 349.9 564.9 349.3 568 351C569.5 351.8 571.6 351.3 577.4 348.5C590.7 342.2 597.8 342.9 601.4 350.8L603.1 354.7L608.4 354.2C612.3 353.9 614.4 354.2 616.4 355.5C618.7 357 619 357.9 619 363.1C619 366.5 618.2 371 617.1 373.8L615.1 378.7L620.7 387.1C627.4 397 634.5 413.7 632.9 415.6C632.2 416.5 632.4 417.9 633.5 420.5C635.6 425.7 635.4 429.5 632.4 436.5C625.8 452.1 626.1 456.9 634.4 474.5C639.5 485.4 640 487.1 640 493.3C640 499.2 640.5 501 643.8 507.3C651.7 522.7 654.4 530 652 530C650.7 530 655.2 538.7 656.9 539.5C657.6 539.8 661.2 539.3 664.7 538.4C668.3 537.5 672.5 537.1 674.2 537.4C676 537.7 678.3 537.4 680 536.5C681.6 535.7 684.2 535 685.8 535C688.8 535 693 531 705.6 516.4C712.2 508.7 712.2 508.7 712.9 502.1C713.5 496.7 713.7 496.4 718.7 493.2C723.1 490.3 724 489.2 724.5 485.9C724.9 483.7 724.6 479 723.9 475.5L722.6 469L728.6 463.5C731.8 460.5 736.5 456.9 739 455.6C746.1 451.8 746.8 450.6 747.6 440.5C748.2 432.2 748 430.6 745 420C740.8 405.2 740.7 402.2 744.7 393.7C748.2 386.3 761.6 370.2 768.6 364.9C773 361.6 783.5 345.7 788.6 334.6C792.9 325.2 792.9 314.3 788.7 317.9C788 318.4 784.7 319.3 781.5 319.9C778.2 320.4 772.9 321.7 769.8 322.8L764.1 324.7L761.5 322C760 320.4 759.2 318.7 759.5 317.8C760.2 316 751.4 305.2 744.8 299.8C741.5 297.1 740 294.9 739 291.6C738.3 289.2 736.7 286.1 735.4 284.9C733.7 283.3 733 281.6 733 279C733 276.4 731.5 272.7 728.1 266.8C725.4 262.1 721.6 254.6 719.7 250.2C716.2 242.2 716.2 242.1 718.3 241.4C720.9 240.6 725.1 245.2 731.1 255.2C733.2 258.9 735.4 262.2 735.9 262.5C736.5 262.8 737.4 265.5 738 268.5C738.9 272.9 740 274.8 743.1 277.7C745.2 279.7 747.2 282.2 747.6 283.4C748 284.6 749.8 287.2 751.6 289.3C755.5 293.5 756.5 297.7 753 294.5C751.4 293 751 293 751 294.2C751 295 751.9 296.5 753 297.5C754 298.4 755.9 302.2 757.1 305.9C758.3 309.5 759.8 312.8 760.4 313.2C761.9 314.3 767.3 313.1 768.6 311.4C769.2 310.6 771.1 310 772.9 310C775.7 310 777.7 309.3 782 306.8C782.8 306.3 786.3 304.6 789.6 302.9C793 301.3 796 299.1 796.2 298.2C796.5 297.1 798.8 295.8 802.3 294.7C806 293.5 808.1 292.3 808.5 291C808.9 289.9 809.7 289 810.5 289C812.7 289 818 283 818 280.5C818 279 818.7 278 820.1 277.7C821.3 277.4 821.9 276.7 821.5 276.1C821.2 275.5 821.8 273.7 822.9 272.1C824.1 270.5 825 268.7 825 268.1C825 266.3 818.7 261.1 816.5 261C812.8 260.9 810 257.3 810 252.6C810 249.1 809.1 249.3 804.5 254C800.7 257.9 794.1 260.8 792 259.5C791.4 259.2 791 257.9 791 256.7C791 255.4 790.3 253.4 789.3 252.1C787.8 249.9 787.6 249.8 786.4 251.4C785.3 253 785.1 252.9 783.6 250.8C782.7 249.6 782 248 782 247.3C782 246.6 780.4 244.3 778.5 242.1C774.5 237.8 773.9 233.7 776.9 232C780.8 229.9 782.6 230.8 786.1 236.6C788.8 241.1 790.7 243 795.4 245.5C801.4 248.8 803.6 248.9 807.4 246.4C809.4 245 813.6 246.3 812.5 248C810.5 251.3 821.2 253.9 839.5 254.6L851.5 255.1L855.5 258.9C857.7 261.1 861.1 263.6 863 264.6C864.9 265.5 865.9 266.5 865.3 266.7C863.1 267.5 863.9 269.7 867.5 272.9C870.6 275.6 871.3 275.8 873.5 274.8C874.9 274.2 876 272.9 876 271.9C876 270.9 876.4 269.9 876.9 269.5C877.9 269 878.3 270.8 879.5 280C880.3 286.8 884.2 297.9 890.9 313.4C894.3 321 897.4 328.9 898 331.1C899.5 336.5 902.5 337.3 906 333C908.3 330.2 908.9 329.9 910.6 331C912.1 331.9 912.5 333.4 912.6 337.8C912.7 341.9 913.2 343.7 914.6 344.7C916.1 345.8 916.6 345.7 918.1 344.4C919.1 343.5 920.3 341.5 920.9 340C921.7 337.5 921.4 336.5 919 333.2C915.5 328.4 914 327.3 913 329C912.1 330.5 910 329.5 910 327.5C910 326.8 910.6 326 911.4 325.7C912.5 325.3 912.7 322.4 912.6 312.4L912.5 299.7L915.2 298.8C916.7 298.3 918.2 297.1 918.5 296.1C918.8 295.1 921.5 292.3 924.4 289.7C927.4 287.1 930.2 284.1 930.5 283C930.9 281.9 932.5 280.3 934.1 279.5C936.1 278.4 937 277.2 937 275.6C937 272.2 938.7 271.3 945.5 271.2C950.2 271.2 951.8 270.7 953.1 269.1C955 266.8 956.2 267.6 957.5 272C958.7 276.2 962.9 281 964.6 280.3C965.9 279.8 966.1 280.1 965.5 281.9C965 283.6 965.5 284.6 967.4 286.1C969.6 287.9 970 288.9 970 293.6C970 298.5 970.2 299 972.6 299.6C974.3 300.1 975.8 299.7 977.3 298.3C983.1 293.3 982.6 293 985.9 303.7C989.8 316.4 991.1 322.2 990.2 323.5C989.8 324 989.5 327.4 989.5 331C989.5 336.6 989.7 337.5 991.2 337.2C993.9 336.8 1001 348.5 1000.3 352.2C999.6 355.8 1003.7 362 1008.6 364.6C1010.5 365.7 1012.8 367.5 1013.6 368.7C1017.1 374.1 1018.3 369.4 1015 363C1013.9 360.8 1013 357.5 1013 355.6C1013 351.7 1007.6 344.5 1001.6 340.4C999.2 338.7 998 337.2 998 335.5C998 334.2 996.8 331.8 995.4 330.1L992.8 327L994.6 319.8C995.5 315.8 996.4 311.9 996.6 311.2C997.3 308.8 999.5 310.6 999.3 313.4C999.1 315.7 999.4 316 1001.2 315.5C1002.7 315 1004.3 315.9 1007.6 319.2C1010 321.5 1012 324 1012 324.7C1012 325.3 1013 326 1014.3 326.2C1015.7 326.4 1016.6 327.2 1016.6 328.5C1016.7 329.6 1016.8 331.3 1016.9 332.3C1017 333.9 1017.6 333.7 1021 331C1023.2 329.3 1025 327.2 1025 326.4C1025 325.7 1026.1 324.8 1027.4 324.4C1028.7 324.1 1031 322.5 1032.5 321C1035 318.3 1035.2 317.6 1034.7 312.7C1034 305.4 1032.3 302.5 1023.5 293.1C1018.4 287.6 1016 284.3 1016 282.6C1016 278.9 1023.6 272 1027.7 272C1030.4 272 1030.9 272.4 1031.2 274.7C1031.6 278.3 1035 279.2 1035 275.8C1035 273.3 1039.1 270.7 1041.6 271.7C1042.4 272 1043.8 271.6 1044.8 270.9C1046.3 269.6 1049.9 267.8 1055.5 265.4C1060.2 263.4 1066.8 254.6 1069.4 247C1072.5 237.8 1073.9 227.9 1071.9 229.7C1070.1 231.5 1067.6 231.3 1068.4 229.5C1068.7 228.7 1069.3 227.3 1069.6 226.5C1070 225.5 1069.6 225 1068.5 225C1067.4 225 1067 224.5 1067.4 223.5C1068.1 221.6 1060.1 212.2 1055.1 208.9L1052.7 207.4L1055.9 202.7C1057.9 199.8 1059.8 198 1061 198C1062.1 198 1063 197.4 1063 196.6C1063 194.6 1055.3 194.1 1051.9 195.9C1049.5 197.1 1049.1 197 1046.7 194.6C1045.3 193.2 1043.4 192 1042.5 192C1040 192 1040.8 190.4 1046 185C1050.8 180 1053.7 179.2 1052.7 183.1C1052.2 185.1 1054 190 1055.2 190C1055.6 190 1056.4 189.2 1056.9 188.1C1058.2 185.7 1062.1 184.7 1065.4 186C1067.5 186.8 1068 187.6 1068 190.4C1068 193.7 1068.2 193.8 1073 195C1077.4 196 1078 196.5 1077.4 198.2C1077 199.5 1077.4 200.6 1078.6 201.4C1079.7 202.2 1080.3 204 1080.3 206.1C1080.3 211.3 1081.5 212.2 1085.8 210.4C1087.8 209.6 1090.2 208.2 1091.1 207.4C1092.7 205.9 1092.7 205.5 1090.7 200.8C1089.1 196.9 1087.5 195 1082.9 191.9C1079.7 189.8 1076.9 187.6 1076.6 187.2C1076.3 186.7 1077.2 185.2 1078.5 184C1080.3 182.3 1081 180.6 1081 177.8C1081 173.6 1084.1 169.4 1086.6 170.4C1087.4 170.7 1088.6 171.3 1089.4 171.6C1091.8 172.5 1095.8 167.8 1097.4 161.8C1098.3 158.7 1099 153.1 1099 149.3C1099 143 1098.6 141.6 1094.7 134.4C1088.3 122.6 1087.9 122.1 1083.1 119.9C1077.9 117.6 1075.4 117.5 1074.6 119.5C1073.7 121.9 1072.6 121.3 1070.1 117.2C1067.9 113.6 1067.9 113.6 1068.5 116.5C1069.1 119.3 1069.1 119.4 1067.2 117.7C1066.2 116.8 1064.6 116 1063.7 116C1061.1 116 1060.7 114.2 1062.8 111.5C1063.9 110.1 1065.1 107.3 1065.4 105.3C1066.8 97.6 1067.7 96.3 1072.7 95.6C1080.7 94.5 1098 94.9 1098 96.1C1098 96.9 1099.7 97.1 1103.6 96.7C1109.1 96.1 1111.6 95.1 1109.4 94.3C1105.7 93 1105 91.6 1106.2 87.7C1107.2 84.3 1107.7 84 1110.9 84C1113.5 84 1115.3 84.8 1117.7 87.2L1121 90.4L1123.4 88.1C1125.4 86.2 1125.7 85.5 1124.7 83.9C1123.5 81.9 1124.2 80.4 1125.9 81.5C1126.5 81.8 1127.7 83.4 1128.5 85C1129.8 87.5 1129.8 88.3 1128.5 92C1127.7 94.4 1127 97.1 1127 98.1C1127 99.1 1126.2 100.5 1125.2 101.1C1123.5 102.2 1123.4 102.6 1124.7 106.4C1125.6 108.8 1127.8 111.8 1130.3 114C1132.6 115.9 1138.2 121 1142.8 125.3C1147.4 129.6 1151.5 132.8 1152.1 132.5C1153.4 131.6 1153.2 126.3 1151.8 125.4C1151 124.9 1151.3 124.3 1152.5 123.4C1154.2 122.1 1154.2 121.9 1152.6 120.1C1151.1 118.5 1151.1 118 1152.3 116.8C1153.5 115.6 1153.5 115.1 1151.9 113.1C1149.9 110.7 1149.3 108.5 1150.9 109.5C1151.4 109.8 1152.1 109.6 1152.4 109.2C1152.7 108.7 1151.4 107.6 1149.5 106.7C1147.6 105.8 1146 104.4 1146 103.5C1146 102.7 1144.8 101.8 1143.3 101.4C1138.4 100.4 1137.9 100 1138.2 98.2C1138.4 97.1 1137.9 95.6 1137.2 94.8C1136.2 93.5 1136.4 93.1 1139.1 92C1141.6 90.9 1142.6 90.9 1144.2 91.9C1145.8 92.9 1146.5 92.8 1148.1 91.4C1149.8 89.9 1150.4 89.9 1153.7 91.1L1157.4 92.5L1159.5 88.5C1162.4 83.1 1167.8 80.1 1172 81.7C1177.1 83.6 1176.5 81.1 1171.3 79C1168.7 77.9 1165.1 76.2 1163.3 75.3C1160.2 73.7 1160.2 73.6 1162.1 72.2C1163.3 71.4 1163.9 70.2 1163.6 69.3C1163.1 68 1163.8 67.9 1168.2 68.5C1171.1 68.9 1174.9 70.1 1176.7 71.1C1180.4 73.4 1190 74.9 1190 73.2C1190 72.6 1189.2 71.6 1188.3 71.1C1186.7 70.2 1186.7 69.9 1188 69C1190.5 67.3 1187 65.5 1178.8 64.1C1174.8 63.5 1163 60.7 1152.5 58C1142.1 55.3 1127.9 52.4 1121 51.5C1114.1 50.6 1107.7 49.7 1106.6 49.5C1105.1 49.2 1105.3 49.7 1107.6 52.1L1110.5 55.2L1108 54.6C1097.8 52.5 1093.6 52 1084.1 52C1074.8 52 1073.1 51.7 1071.6 50.1C1069.3 47.6 1067 47.2 1049.5 46.1C1040.9 45.5 1033 44.5 1031 43.7C1027.1 42.1 1000.3 39.4 999.2 40.5C998.8 40.8 999.6 42 1001 43.1L1003.5 45.2L994.2 44.5C989.1 44.2 984.3 43.7 983.5 43.4C982.4 42.9 982 43.5 982 45.4C982 46.8 981.8 48 981.6 48C980 48 971 43.3 969 41.4C966.5 39.1 955.2 36 949.3 36C947.2 36 946.9 36.2 948 37.5C949.1 38.8 948.3 39 942.2 39C938.3 39 934.8 38.5 934.5 38C934.2 37.4 930.7 37 926.8 37C921.4 37 919.2 36.5 917 35C914.2 33 912 33.1 909 35.5C907.5 36.7 901 38.4 901 37.5C901 37.3 903.3 35.9 906 34.4C910.9 31.7 911.7 30.6 910.2 28.5C909 26.8 900.3 25 893.1 25C887.9 25 886.1 24.6 885.6 23.5C885 21.9 876.9 21.5 872 22.9ZM669 69.3C669 69.9 666.3 72.3 663 74.5L657.1 78.5L657.2 84.2C657.3 92.8 658.6 93.7 669.7 92C682.5 90.1 685.6 90.4 683.1 93.4C682.3 94.4 680 94.8 675.7 94.8C672.3 94.7 668.4 95.2 667.1 96L664.6 97.3L666.9 99.1C668.6 100.5 669.1 101.6 668.6 103.5C667.9 106.4 666.8 106.7 665 104.5C664.3 103.7 663 103 662 103C659 103 657.7 105.6 658.4 110C659 113.8 658.9 114 655.1 116C651.2 117.9 651.1 117.9 649.8 116.1C648.5 114.2 648.3 114.3 643 116.6C636.5 119.4 634.4 119.5 633.2 117.4C632.4 115.9 632 115.9 629.1 117.5C625.2 119.5 624.2 119 627 116.5C628.1 115.5 629 114.1 629 113.4C629 111.9 634.5 112.5 636.8 114.3C637.6 114.9 638 114.9 638 114.2C638 113.6 637.5 112.8 637 112.5C635.4 111.5 636.9 110 639.6 110C642.3 110 644.2 106.6 643.4 103.4C642.9 101.1 643.6 100 647.8 97.1C649.5 95.9 651 94.6 651 94.2C651 93.8 649.6 92.7 648 91.8C642 88.4 645.4 79.9 654.3 76.2C655.8 75.6 657 74.5 657 73.7C657 73 657.7 71.4 658.6 70.2C659.8 68.5 661.1 68 664.6 68C667.5 68 669 68.4 669 69.3ZM724.9 154.5C723.7 156.4 722.4 158 721.9 158C719.5 158 721.6 160.1 726.8 163C732.8 166.4 741 173.6 741 175.6C741 176.2 740.2 177.4 739.3 178.2C736.9 180.3 725 179.1 719.4 176.2C715.5 174.2 715 174.2 709 175.6C705.5 176.4 702.1 177.5 701.4 178.1C699.8 179.4 694.6 178.4 690.8 176.2C688.5 174.9 688.2 174.2 688.7 171.6C689 169.9 689.7 168.3 690.1 168C690.5 167.7 691.1 166.3 691.5 164.8C691.9 163.3 692.8 161.9 693.6 161.6C694.4 161.3 695 160.5 695 159.7C695 159 696 157.4 697.3 156.2C699.1 154.5 700.3 154.2 703.3 154.7C707 155.3 707.9 156.3 706 157.5C705.3 157.9 706 159.2 707.6 160.7C709.7 162.7 710.7 163 712.4 162.2C713.6 161.7 715.6 160.8 717 160.2C718.7 159.5 718.9 159.1 717.8 159.1C713.4 158.9 715.3 153.6 720.3 152.1C726.6 150.3 727.2 150.6 724.9 154.5ZM777.4 152.5C781 154 781.9 156.1 780.1 158.9C779.6 159.6 778.8 160 778.2 159.6C776.7 158.7 774 160 774 161.5C774 162.2 773.5 163 772.9 163.2C772.3 163.4 774.3 165.8 777.4 168.5C781.2 171.8 783 174.1 783 175.7C783 178.4 783.8 178.6 785.6 176.2C786.9 174.6 787.1 174.6 789 176.9C791.7 180.1 791.5 181 788.1 181C783.7 181 783.5 182.6 787.3 186.2C790 188.8 790.9 190.6 791.3 194.2L791.9 198.8L787.1 199.5C782.3 200.1 778 199 778 197C778 196.5 776.8 196 775.4 195.8C771.6 195.4 770.1 192.6 772.3 190.2C773.2 189.2 774 187.4 774 186.3C774 185.1 774.6 184 775.3 183.7C776 183.5 773.7 180.7 769.8 177.1C764.4 172.1 763 170.2 763 167.9C763 166 762.5 165 761.5 165C760.7 165 760 164.2 760 163.3C760 161.4 763.8 157 765.4 157C766 156.9 768.1 155.6 770 154C771.9 152.3 773.5 151 773.6 151C773.7 151 775.4 151.7 777.4 152.5ZM641.4 167.4C643.1 168.7 647.3 171.4 650.8 173.5C656.5 176.8 657 177.4 657 180.6C657 185.2 659.3 189.6 662.7 191.2C664.4 192 665.7 193.7 666.2 195.7C666.7 197.5 667.5 199 667.9 199C668.4 199 669.5 199.3 670.4 199.6C671.5 200 672 199.7 672 198.6C672 197.8 673.1 196.3 674.5 195.4C677.7 193.3 677.6 192.7 674 189C672.4 187.3 671 185.3 671 184.5C671 182.7 672.2 182.6 673.8 184.2C674.6 185 675.4 184.8 676.8 183C679.7 179.4 682.3 181 684.3 187.8C687.1 196.7 688.3 199 690.4 199C691.4 199 694 200 696.2 201.2C699.9 203.3 700.2 203.3 701.1 201.7C702.3 199.6 705 199.5 707.6 201.5C708.6 202.3 710.4 202.9 711.5 202.9C712.6 202.9 714.4 202.3 715.4 201.5C716.5 200.7 718.6 200 720.1 200C722.3 200 722.8 200.5 723.3 203.5C724.2 209.2 719.2 222.7 715.3 224.8C714.4 225.4 711 225.5 707.8 225.2C704.3 224.9 700.4 225.2 698.1 226C694.5 227.1 693.6 226.9 681.5 222.1C669.9 217.5 668.2 217.1 665.3 218.1C660.7 219.6 657.7 223.6 659.1 226.2C660.8 229.4 656.5 231.5 654.1 228.6C653.5 227.9 650.9 227 648.3 226.7C645.4 226.4 643.1 225.5 642.1 224.3C639.3 220.8 634.3 218 630.8 218C628.7 217.9 626.4 216.9 624.2 215.1C621 212.4 621 212.3 622.4 208.9C624.2 204.6 622.7 198.5 619.5 197.5C616.8 196.6 610.4 196.9 605.5 198.2C603.3 198.7 597.3 199.6 592.2 200.1C582.4 201 580.1 201.8 576 205.5C573.7 207.6 572.8 207.8 566.7 207.3C560.5 206.8 559.9 206.5 560.2 204.6C560.5 202.3 563.6 200.5 569.7 199C574.2 197.9 582.6 190.8 581.5 189C580.3 187 585.4 179.8 589.5 177.8C594.1 175.4 595.2 174.2 594.4 171.8C593.6 169.2 598.5 167.5 602.9 168.9C606 169.8 606.8 169.6 610.7 167C616.6 163 618.5 163.1 620.9 167.9C623.3 172.5 627.7 176.4 633.7 179.2C637.7 181.1 643 186.1 643 187.9C643 188.4 642.1 189.9 640.9 191.3C639.1 193.6 638.4 193.9 634.6 193.4C627.9 192.4 627.9 194.6 634.6 197.5C637.7 198.9 640.4 200 640.6 200C640.8 200 641 198.6 641 197C641 194.8 641.5 194 642.8 194C643.8 194 645.4 192.7 646.3 191C647.7 188.6 647.9 187.6 647 185.9C645.3 182.9 647.1 181.3 650.5 182.8C652.6 183.8 653 183.7 653 182.4C653 181.6 650.9 180 648.3 178.9C645.6 177.8 643.1 176.2 642.7 175.4C642.3 174.6 641 174 640 174C637.9 174 629 163.5 629 161.1C629 160.3 629.7 158.8 630.6 157.9C632.2 156.1 632.4 156.3 635.3 160.6C636.9 163.1 639.7 166.1 641.4 167.4Z" fill="#f5891d" fill-rule="nonzero" opacity="1" stroke="none"/>
<path d="M236.4 33.8C235.8 34.2 235.1 35.2 234.8 36.1C234.4 37 231.2 38.8 227.7 40.1L221.1 42.5L223 45C224.7 47.3 225 47.3 230 46.2C232.9 45.5 236.3 44.1 237.7 43C241.8 39.8 242.2 40.7 239 46.5C237.3 49.6 236 52.3 236 52.6C236 52.9 237.4 53.6 239 54.1C240.7 54.7 242 55.8 242 56.6C242 58.4 244.3 58.4 247.8 56.6C253 54 266.9 53.1 273.6 54.9C276 55.6 277.4 55.3 279.9 53.8C283.5 51.5 283.5 51.6 281.4 48.6C280.4 47 280.2 46 280.9 45.5C281.5 45.2 282 43.1 282 40.8C282 37 281.9 36.8 279.4 37.4C278 37.8 275.8 39.3 274.5 40.8C272.3 43.3 272.1 43.4 270.3 41.8C269.3 40.9 266.2 39.8 263.4 39.5C259.2 38.9 258 38.3 256.6 35.9C254.9 33.1 254.7 33 246.2 33C241.4 33 237 33.4 236.4 33.8Z" fill="#f5891d" fill-rule="nonzero" opacity="1" stroke="none"/>
<path d="M298.7 35.7C298.3 36 298 37.2 298 38.2C298 40.2 296.9 40.5 295.3 38.9C294.7 38.3 293.7 38.1 293.1 38.5C292.4 38.9 293.1 40.2 295 42.1C298.2 45.4 299.3 45.4 306.1 41.9C308.5 40.7 309.9 39.2 310.2 37.5C310.7 35.1 310.6 35 305 35C301.9 35 299 35.3 298.7 35.7Z" fill="#f5891d" fill-rule="nonzero" opacity="1" stroke="none"/>
<path d="M314.6 38C313.3 39.7 309.3 42.9 305.9 45.1C302.5 47.4 299.5 50.1 299.2 51.2C298.8 52.8 298.1 53.1 295.5 52.6C291.2 51.8 285 54.4 285 57C285 58.8 284.3 59 278.8 59.1C269.4 59.3 267.7 59 265.4 56.9C263.5 55.1 262.9 55 258.6 56.2C256.1 56.9 254 58 254 58.7C254 59.7 251.5 60 243.8 59.9C235.6 59.9 234 59.6 235.8 58.8C240.1 56.7 239.3 56.2 224.9 53C221.7 52.3 218 52 216.6 52.4C214.7 52.9 214 52.7 214 51.5C214 50.3 213.5 50.2 211.3 51.1C209.1 51.9 208.3 51.8 207.3 50.4C206.5 49.3 205.5 49 204.3 49.5C200.1 51.2 187.3 53.5 185 53C183.6 52.7 180.9 53 179 53.7C174.2 55.4 170.4 55.3 167.4 53.4C165.8 52.3 161.3 51.5 154.2 50.9C140.4 49.9 127.8 47.7 125.5 46C124.2 45 110 48 98 51.8C92.8 53.5 86.9 55.1 85 55.5C78.5 56.7 77.9 57.1 78.5 59.1C78.8 60.1 79.3 61.9 79.6 63C80 64.7 79.7 65 77.1 65C75.4 65 74 64.6 74 64.1C74 63.6 70.3 64.1 65.8 65.4C59.5 67.1 57.5 68.1 56.9 69.8C56.2 71.6 56.5 72.1 58.5 72.6C59.9 72.9 62.8 73 65 72.8C68.1 72.5 68.9 72.8 68.5 73.8C68.2 74.6 68 75.5 68 76C68 76.4 65.9 77 63.3 77.3C50.5 78.6 40.3 82.9 36.7 88.4C34 92.5 34.5 94.1 38.1 93.3L41.2 92.7L39.5 95.4C37.9 97.7 37.9 98 39.4 97.4C41.4 96.6 48 97.8 48 98.9C48 99.7 9 115 6.8 115C6.1 115.1 4.4 115.7 3 116.5C0.5 117.9 0.5 117.9 4 117.4C15.9 115.5 36.3 109.6 43.4 106C47.7 103.8 52.3 102 53.5 102C57 102 65 99.3 67.1 97.4C68.5 96.1 68.7 95.4 67.9 94.3C67 93.3 67.3 93 69.4 93C70.8 93 74.3 92.1 77.2 91C80 89.9 82.5 89.2 82.7 89.4C82.9 89.6 81.2 90.9 79 92.4C76.8 93.8 75 95.2 75 95.4C75 96.1 87.8 93 92.6 91.2C97.4 89.3 97.7 89.3 101 91C102.9 92 106.8 93.1 109.7 93.5C117.1 94.5 118.4 96.8 117.7 107.2L117.2 115L120.6 115C123.8 115 123.9 115.1 122.9 117.7C122.2 119.4 122.1 123.2 122.5 127.4L123.1 134.3L120.6 133.6C116.7 132.6 116.8 135.9 120.8 140.2C123.5 143 124.1 144.2 123.2 145.2C122.7 145.9 121.2 149 120 152C118.8 155 115.4 160.2 112.5 163.6C109.5 166.9 106.8 171 106.4 172.6C106 174.2 104.6 177.1 103.1 179C100.1 183.1 99.9 185.8 101.3 199.3L102.4 209.2L106.6 212.1C111.5 215.4 111.7 215.9 112.6 226C113 230.1 113.9 234.8 114.7 236.3C116 238.9 116 239.3 114.4 240.4C112.9 241.6 112.9 242 114.1 243.7C114.9 244.8 116.9 246.9 118.6 248.3C121 250.3 121.6 251.6 121.3 253.4C120.9 255.2 121.7 257 123.9 259.7C125.6 261.8 127 264 127 264.7C127 265.4 127.5 266 128 266C130.1 266 130.2 262.7 128.3 258.6C127.2 256.4 126 253.1 125.6 251.3C125.2 249.6 123.4 244.3 121.5 239.6C119 233.2 118.3 230.1 118.7 227.5C119 225.6 119.4 224 119.6 224C119.7 224 121 224.4 122.3 224.9C124.3 225.7 124.8 226.7 125.3 231.1C125.8 234.7 127 238 129.5 241.7C131.6 244.8 133 248.2 133 250C133 252.3 134.5 254.8 139 260.1C143.9 265.8 145 267.7 145 270.6C145 272.5 144.6 274.9 144.1 275.8C143.6 276.7 143.6 278.4 144 279.6C145 282.1 154 289 156.3 289C157.2 289 158.3 289.6 158.7 290.4C159.9 292.4 173.7 299.1 176.8 299.2C178.3 299.2 181.2 298.9 183.3 298.5C186.9 297.8 187.3 297.9 191.9 302.7C196.6 307.6 197.7 308.1 209.8 311.3C212.8 312.1 214.2 313.1 214.6 314.7C214.9 315.9 216 317.6 217.1 318.6C218.1 319.5 219 321.4 219 322.7C219 325.8 229.2 335.4 232.8 335.7C234.2 335.8 236.3 336.9 237.6 338.1C240.3 340.7 243.5 340 242.7 337C242.1 334.7 245.3 331.5 247.5 332.4C248.3 332.7 249.3 333.8 249.6 334.7C249.9 335.7 250.8 337.7 251.6 339.2C253.3 342.4 253.5 356.2 251.8 359.3C251.2 360.5 249.9 362.1 248.8 362.8C247.8 363.5 247 365 247 366.1C247 367.2 246 368.5 244.8 369.1C241.6 370.5 237.6 380.9 238.9 384.3C239.4 385.7 240.4 387.1 240.9 387.5C241.6 387.9 241.1 389.3 239.4 391.5C237 394.6 237 395.1 238.1 399.2C238.8 401.6 240.6 404.8 242.1 406.5C243.6 408.1 246 412 247.5 415C249 418 251.5 422.3 253 424.5C254.5 426.7 257.8 432.6 260.3 437.7C264.9 446.8 265 446.9 275.7 454.5C281.6 458.8 286.7 462.4 286.8 462.6C287 462.7 288 467.7 289.1 473.7C290.3 481.1 290.9 489.5 291 500.3C291 511.9 291.4 517.6 292.7 522.1C294.1 527.3 294.2 529.8 293.3 540.8C292.4 552.1 292.5 553.9 294 557C295 558.9 296 563 296.3 566C297.2 573.9 298.8 579 300.6 579C301.6 579 301.9 578.3 301.4 576.5C301 575.1 301.2 574 301.8 574C302.4 574 303.3 576.3 303.9 579C305.3 585.4 305.3 585.3 303.6 584.7C301.5 583.9 299.4 586.6 300.8 588.3C301.5 589.1 301.7 591.2 301.3 593.3C300.9 596.2 301.1 597 302.2 597C304.7 597 306.3 599.6 305.1 601.8C304.3 603.4 305.1 605.2 309.6 611.8C312.7 616.3 318 622.5 321.4 625.8C327.3 631.2 328.2 631.8 337.5 634.2L347.3 636.7L350.7 634.8C352.5 633.7 354 632.5 354 632.1C354 631.7 351.5 630.6 348.6 629.6C344.4 628.4 342.1 626.8 338.9 623.2C333.7 617.3 332.8 615 334.6 612.9C335.4 612 335.8 610.6 335.4 609.7C335.1 608.8 335.8 606.4 337.1 604.3C338.6 601.9 339 600.5 338.2 600.2C337.6 600 336 599 334.6 597.9C331.6 595.5 330.9 589.4 333.5 588.4C334.5 588 335 586.4 335 584C335 581.9 335.7 579.7 336.5 579C338.6 577.3 338.4 576 336.1 576C334.1 576 331 572.5 331 570.3C331 569.5 332.3 569.1 334.5 569.2C338.8 569.4 341.3 567.4 340.6 564.4C339.6 560.7 340.9 559 344.5 559C350.9 559 354 557.8 355.5 554.9C357.7 550.7 357.4 545.3 355 544C353.9 543.4 352.7 541.8 352.4 540.5C352.1 539.1 351.1 538 350.2 538C349 538 348.9 537.7 349.8 536.8C350.7 535.9 351.4 536.1 352.9 537.4C354 538.4 356.7 539.4 359 539.7C362.3 540.2 363.5 539.9 365.5 538C368 535.6 373 524.4 373 521C373 519.7 373.7 519 374.9 519C378.5 519 381.5 512.4 381.7 504C381.8 499.9 381.9 496.2 381.9 495.9C382.1 494.5 396.2 485.9 400.9 484.3C408.9 481.8 412.2 476.7 414.5 463.6C415.5 458 416.4 450.1 416.5 445.9C416.7 438.6 416.9 438 421.2 431.9C423.7 428.4 427.4 422 429.3 417.7L432.9 409.9L431.2 405.3C429.9 401.8 428.8 400.4 426.4 399.6C424.7 399 420.6 396.1 417.2 393.1L411.1 387.6L402.8 387.4C398.2 387.2 393.7 387 392.8 387C391.7 386.9 391 386.1 391 384.7C390.9 383 389.6 381.9 384.8 379.7C379.3 377.2 378.5 377.1 377 378.5C374.7 380.6 374 380.4 374 377.7C374 376.3 372.9 374.9 371 373.8C368.5 372.4 368.1 371.6 368.6 369.6C369 367.9 368.6 366.8 367.2 365.8C366.1 365.1 364.9 362.7 364.5 360.5C363.5 355.3 363.3 354.9 358.2 350.6C354.4 347.5 353.1 347 348.7 347C342.2 347 333.5 342.7 332.1 339C331.6 337.5 329.6 335.7 327.3 334.5C325.1 333.4 322.9 331.7 322.4 330.5C321.9 329.4 320.3 327.9 318.8 327.2C315.8 325.8 315.3 324.5 317.3 323.6C317.9 323.3 316.3 323.3 313.5 323.6C310.8 323.9 308.2 324.6 307.9 325.1C307.6 325.7 305.8 325.4 303.7 324.5C301.7 323.7 298.5 323 296.5 323C292.3 323 287.5 320.8 286.6 318.4C286.1 317 285.4 317.4 282.5 320.6C280.6 322.7 279.1 325.6 279 326.9C279 328.9 278.8 329.1 277.5 328C276.4 327.1 276.2 326.4 277 325.6C277.5 325.1 278 323.4 278 321.8C278 320.3 278.7 318.7 279.5 318.3C280.3 317.8 280.6 316.9 280.2 316.3C279.6 315.4 278.2 315.9 275 318C272.6 319.6 269.2 321.2 267.5 321.6C264.2 322.3 262.1 324.5 262 327.2C262 328.2 260.7 330.4 259.2 332.2L256.3 335.3L252.7 332.4C249.8 330.2 248.2 329.6 245.3 329.9C243.2 330 240.7 330.6 239.6 331.2C235.5 333.4 229 326.4 229 319.9C229 318 229.7 313.4 230.7 309.6L232.3 302.8L229.9 300.9C228 299.4 225.7 299 218.8 299L210.1 299L212.7 292.7C214.1 289.3 216.1 284 217.2 281C218.4 278 219.7 275 220.1 274.4C220.7 273.6 219.6 273.1 216.4 272.6C210.1 271.8 206.6 273.7 204.8 279.2C203.4 283.4 203.2 283.5 196.1 285.4C187.7 287.6 185.4 286.9 181.7 281.1C177.3 274.1 177 270.5 180.2 261.1C181.7 256.4 183 251 183 248.9C183 245.4 183.4 245 192.3 239.1C199.9 234.1 202.3 233 205.7 233C208 233 210.2 233.4 210.5 234C211.6 235.7 215.3 235.1 217.7 232.8C220.7 230 232.7 229.2 233.7 231.7C234.1 232.8 235.2 233 237.5 232.6C240 232.1 241.1 232.5 243 234.5C245 236.7 245.3 237.5 244.4 239.8C243.2 242.8 244.2 247.9 246.7 251.6C250.7 257.8 253.5 251.1 252.5 237.6L251.9 228.5L256.7 223.3C259.3 220.4 264.7 216.1 268.5 213.6C272.4 211.1 277.2 207.4 279.3 205.3C282.5 202.1 283 201 282.6 198.2C282.3 195.9 282.5 195 283.6 195C284.4 195 285.8 193.5 286.7 191.6C287.6 189.7 288.8 188.4 289.5 188.6C290.2 188.9 292.1 187.4 293.8 185.3C296 182.4 298.3 181 302.3 179.7C305.2 178.8 308.4 178 309.2 178C311.3 178 313.4 175.4 312.1 174.5C310.5 173.6 315 167.2 318 166.1C319.4 165.6 324.3 163.8 329 162.1C337.3 159.1 337.4 159.1 334.6 161.4C330.7 164.6 331.6 167.3 336 166C337.8 165.5 339.7 164.6 340.4 164.1C341 163.6 343.6 162.6 346.2 162C348.8 161.3 351.6 159.9 352.6 158.9C353.5 157.9 355.1 157 356.2 157C357.5 157 358 156.3 358 154.5C358 153 357.4 152 356.6 152C355.8 152 354.3 153.1 353.2 154.5C350.5 157.9 344.7 158 342.5 154.7C341.1 152.5 341.2 152 343.6 147.6C345.8 143.6 346 142.6 344.9 141.9C342.6 140.4 340.3 140.9 333.2 144L326.5 147L330 144C331.9 142.3 334.1 141 334.9 141C335.7 141 337.2 140.2 338.3 139.2C339.8 137.8 342.8 137.4 353.4 136.9C365.6 136.4 366.9 136.1 372.8 133.2C376.2 131.4 379 130.3 379 130.8C379 131.2 375.6 134.9 371.5 139C367.4 143.1 364 146.8 364 147.2C364 147.7 366.9 148 370.4 148C374 148 377.2 148.5 377.5 149.1C377.9 149.7 378.8 149.9 379.6 149.6C380.3 149.3 381.4 149.8 381.9 150.7C382.7 152.2 383 152.2 385.4 150.7C387.5 149.3 387.8 148.6 387 146.6C386.5 145.3 386.4 143.3 386.7 142.1C387.1 140.3 386.8 140 384.4 140C380.8 140 378.3 135.8 380.6 133.9C381.4 133.3 381.7 132.4 381.4 131.9C381.1 131.4 381.8 129.7 382.9 128.1C384.9 125.4 384.9 125 383.4 120.6C382.5 118 380.9 115.5 379.6 114.9C378.5 114.3 376.3 112.6 374.8 111.2C372.7 109.3 372.3 108.3 373.1 106.9C374.1 104.9 372.3 91 370.9 91C370.5 91 368.9 92.1 367.3 93.4C365.8 94.7 362.6 96.7 360.4 97.8C356.3 99.9 356.2 99.9 354.2 98C351.9 95.9 352.2 92.3 354.8 90.3C356.1 89.2 355.9 88.9 353.7 88.1C352.2 87.5 349.7 85.6 348.1 83.8C346 81.5 344.8 80.8 344.1 81.6C343.4 82.2 340.8 82.4 337.4 82C331.9 81.4 331.8 81.4 329.4 84.9C328.1 86.9 327 89.2 327 90C327 90.9 325.2 93.4 323 95.5C319.7 98.7 319.3 99.6 320.5 100.3C322.3 101.3 322.4 103 320.9 106.3C319.7 108.9 310.8 114.6 307 115.2C304.9 115.5 304.3 116.3 303.1 121.6C301.9 126.9 301.3 127.9 298 129.8L294.2 131.9L293.6 129.6C293.3 128.3 292.7 126.5 292.4 125.6C292 124.4 292.2 124.1 293.3 124.6C294.1 124.9 295.1 124.7 295.5 124.1C295.8 123.5 295.4 123 294.6 123C292.5 123 292.6 121.2 295 117.2L297 114L293.7 114C292 113.9 288.7 113.1 286.5 112C284.3 110.9 281.9 110.1 281.3 110C280.6 110 280 109.6 280 109C280 107.3 275 104.7 271.9 104.8C269.2 104.9 269 104.6 269 100.9C269 97.9 268.6 97 267.3 97C263.6 97 272.8 89.7 283.1 84.5C288.9 81.6 294.2 78.5 294.9 77.6C295.7 76.7 297.1 76 298 76C300.6 76 309 72.3 312.7 69.4C314.4 68.1 316.2 67 316.6 67C317.9 67 310.7 74.1 308.5 75C306.9 75.7 306.8 75.9 308.2 75.9C309.1 76 310 76.7 310.2 77.5C310.5 78.8 311.1 78.7 314.4 76.9C317.6 75.2 318.8 75 320.7 75.9C324 77.4 327 77.3 327 75.6C327 74.9 325 72.6 322.5 70.6C317.5 66.5 316.6 64.4 320.5 66.2C322.4 67.1 323.3 67.1 324.2 66.2C324.9 65.5 326.3 65 327.5 65C330.2 65 336 61.4 336 59.7C336 58.9 336.9 57.5 338 56.5C339.4 55.2 339.7 54.3 339 53.6C336.9 51.5 338.2 51 346.3 51C352.9 51.1 354.9 51.4 356.8 53C359.6 55.4 358.9 57 355 57C352 57 348.6 59.5 349.5 61.1C350.5 62.6 354.3 62.1 356.4 60.1C359.5 57.2 362.4 57 362.8 59.7C363.1 61.5 362.2 62.4 358.6 64.2C355.5 65.7 354 67 354 68.3C354 70.1 353.5 70.2 348.1 69.7C343.3 69.2 341.8 69.4 340 70.8C338.1 72.4 338 72.7 339.3 73.8C340.5 74.8 341.6 74.7 344.9 73.4C348.9 71.8 349.2 71.8 351.1 73.6C352.3 74.7 353.8 76.7 354.5 78.1C355.6 80.1 357.5 81.1 362.9 82.7C370.7 85 371.7 84.4 367.9 79.6C365.3 76.3 366 76.3 371.6 79.6C374.5 81.3 376 81.8 376 80.9C376 80.2 376.9 78.6 378 77.4L380.1 75.3L377.5 72.2C374.6 68.7 374.4 67.7 376.6 65.9C378 64.8 378.6 65 380.9 67.8C383.7 71.2 386.4 72 387.4 69.5C387.7 68.7 388.9 68 390 68C391.2 68 393 67.2 394.1 66.1C396.1 64.3 396.1 64.3 392.4 61.1C390.1 59.1 388 58 386.9 58.3C384.1 59 382.4 56.4 384.4 54.5C385.3 53.6 386 52.3 386 51.6C386 49.8 382.7 47 380.6 47C379.7 47 378.7 46.3 378.4 45.5C378 44.7 376.7 44 375.5 44C374.1 44 372.1 42.7 370.4 40.8C367.9 37.7 367.2 37.5 359.6 36.9C350.9 36.2 344.3 37.5 340.9 40.6C339.3 42.1 339 42.1 339 40.8C339 39.9 340 38.5 341.3 37.7C343.4 36.1 343.5 36.1 341.4 36.1C337.7 36 330.6 39 326.8 42.3C323.8 45 323.3 45.9 324.1 47.7C324.7 49.4 325.7 50 328.1 50C330.5 50 331.1 50.3 330.6 51.6C330.3 52.5 330 53.3 330 53.5C330 54.2 320.2 60.8 318.2 61.4C315.5 62.3 315.1 59.6 317.6 58.2C319.8 57 319 53.6 316.3 53.2C314.6 52.9 314.1 52.1 313.8 48.2C313.2 42.4 314 41.3 319.3 40.5C321.6 40.1 325.3 38.7 327.5 37.4L331.5 35L324.3 35C317.6 35 317 35.2 314.6 38Z" fill="#f5891d" fill-rule="nonzero" opacity="1" stroke="none"/>
<path d="M512.6 66.9L509.8 68.8L512 70C513.2 70.6 514.8 70.9 515.6 70.6C516.5 70.3 517 70.7 517 71.9C517 72.9 518.1 74.3 519.5 75C520.9 75.7 522 76.8 522 77.3C522 78.4 528.6 77.4 535.9 75.2C542.3 73.2 544.6 70 541.4 67.5C540.4 66.7 538.4 66.2 537 66.5C527.7 68.1 520.9 68.2 518.5 66.6C515.5 64.7 516.1 64.6 512.6 66.9Z" fill="#f5891d" fill-rule="nonzero" opacity="1" stroke="none"/>
<path d="M575 97.5C574.3 98.4 573.1 98.9 572.3 98.6C571.5 98.3 569.5 99 567.8 100.3C564.1 103 562.5 106.7 564.1 108.6C565 109.7 564.9 110 563.9 110C563 110.1 563.3 110.8 564.8 111.9C566 113 567 114.3 567 114.9C567 115.5 568.1 116 569.4 116C571.2 116 572.1 116.8 572.8 118.9C573.8 121.6 573.6 121.8 570.9 122.4C568.2 122.9 566.7 125 569 125C571 125 569.9 126.8 567.5 127.4C564.3 128.2 564.3 130 567.4 130C568.8 130 570.2 130.4 570.5 131C570.8 131.5 570.5 132 569.7 132C568.4 132 564 136 564 137.2C564 138.1 569.9 136.3 571.5 135C572.2 134.4 575.9 134.1 579.7 134.2C587.2 134.4 589.5 133.6 588.6 131.3C588.3 130.5 588.7 129.2 589.5 128.3C591.6 126.3 590.9 124.6 587.9 124C586.6 123.7 585.4 122.9 585.2 122.1C584.8 120.2 579 111.8 577.1 110.3C575.7 109.3 575.7 109 577.3 107.3C579.7 104.6 579.4 103 576.6 103C573.7 103 572.3 101.5 574.4 100.7C576.1 100 578.5 96 577.2 96C576.7 96 575.7 96.7 575 97.5Z" fill="#f5891d" fill-rule="nonzero" opacity="1" stroke="none"/>
<path d="M554.8 115.6C554 117.4 553.1 118 551.7 117.6C549.1 117 547.6 121 549.8 122.8C551.3 123.9 551.2 124.2 549.2 125.6C543.8 129.4 548.5 131.7 556.1 129C561.8 127.1 563 125.8 563 121.8C563 120.3 563.5 118.8 564 118.5C566.2 117.1 565 114.2 561.9 113.6C556.9 112.6 556 112.9 554.8 115.6Z" fill="#f5891d" fill-rule="nonzero" opacity="1" stroke="none"/>
<path d="M1073.6 256.9C1071.5 260.9 1071.6 263.9 1074 267.4L1075.9 270.4L1076.9 267.7C1078.8 262.9 1079 260.6 1078.2 257.6C1077.1 253.5 1075.4 253.3 1073.6 256.9Z" fill="#f5891d" fill-rule="nonzero" opacity="1" stroke="none"/>
<path d="M233.8 267.1C232.2 268.2 231 270 231 271.1C231 273.7 232.5 273.5 234.7 270.7C237.7 266.9 238.7 266.8 245.3 269.1C252.9 271.7 254.6 273.2 255.5 277.6L256.1 281L262.8 280.4C266.5 280 270.4 279.3 271.5 278.7C273.3 277.8 273.1 277.5 269.5 276C267.3 275 264.4 273.1 263 271.6C260.2 268.5 253.2 266.3 243.5 265.5C237.4 265 236.2 265.2 233.8 267.1Z" fill="#f5891d" fill-rule="nonzero" opacity="1" stroke="none"/>
<path d="M277.8 282.3C277.5 285.1 277.1 285.6 274.1 286C268.7 286.8 269 289 274.4 289C276.9 289 279 289.4 279 290C279 291.6 282.2 291.1 283.5 289.3C284.3 288.3 286.7 287.5 290.4 287.2C293.5 287 296 286.4 296 285.9C296 285.5 294.4 283.9 292.5 282.4C290 280.5 288.2 279.9 286.4 280.3C284.9 280.6 282.5 280.4 280.9 280C278.3 279.2 278.1 279.4 277.8 282.3Z" fill="#f5891d" fill-rule="nonzero" opacity="1" stroke="none"/>
<path d="M1032.2 279.7C1031 279.9 1029.5 281 1029 282C1026.5 286.8 1032.6 289.1 1035.6 284.5C1037.1 282.1 1037 278.8 1035.3 279.1C1034.9 279.2 1033.5 279.5 1032.2 279.7Z" fill="#f5891d" fill-rule="nonzero" opacity="1" stroke="none"/>
<path d="M1080.7 285.1C1079.7 285.7 1079 287.3 1079 289.3C1079 291.1 1078.3 293.8 1077.5 295.3C1075.7 298.8 1076.6 303.7 1079.2 305.1C1080.6 305.8 1081 306.8 1080.6 308.3C1080.3 309.6 1080.9 311.4 1082 312.7C1084.4 315.7 1085 315.6 1085 312C1085 309.1 1085.1 309.1 1087.7 310.3C1089.2 310.9 1092.1 313.3 1094.1 315.5C1097.3 318.9 1097.6 319.6 1096.3 320.4C1095.3 321 1093.8 320.7 1092 319.6C1090.4 318.7 1088.9 318 1088.6 318C1087.2 318 1088.1 323.1 1089.8 324.8C1090.8 325.8 1091.9 327.4 1092.3 328.3C1093 330.1 1094.7 330.4 1097.4 329.4C1099.5 328.6 1099.4 327.1 1097.3 324.8C1095.8 323.1 1095.8 322.8 1097 322C1099.3 320.5 1100.2 321.3 1101.6 326.1C1102.9 330.2 1102.8 330.6 1100.8 332.1C1099.7 333 1097.9 333.5 1096.9 333.3C1094.7 332.7 1091.5 335.9 1090.6 339.6C1090 342.3 1090.1 342.4 1091.5 340.6C1092.3 339.5 1094 338.6 1095.4 338.4C1097.4 338.2 1097.9 338.7 1098.4 341.5C1098.8 343.7 1100.2 345.7 1102 347L1105 349.1L1105 345.5C1105 342.6 1105.4 342 1106.8 342.2C1107.9 342.4 1108.4 342 1108.1 341C1108 340.2 1107.7 337.2 1107.6 334.3C1107.5 330.5 1106.9 328.5 1105.2 326.7C1104 325.4 1103 323.1 1103 321.6C1103 317.6 1101.4 315.2 1098 314.5C1095.4 313.9 1095.1 313.5 1095.6 311C1096.2 308.3 1095.9 308.1 1091.9 307C1089.5 306.3 1086.9 305.6 1086.3 305.4C1084.7 305 1084.6 298.6 1086 295.9C1086.8 294.6 1086.7 292.8 1085.9 290C1084.4 285.1 1083.1 283.8 1080.7 285.1Z" fill="#f5891d" fill-rule="nonzero" opacity="1" stroke="none"/>
<path d="M1066.7 344C1065.7 346.1 1063.4 348.8 1061.5 350C1059.7 351.1 1056.9 353.5 1055.3 355.3C1053.7 357.1 1051.3 359 1049.8 359.7C1048.3 360.4 1046.4 362.3 1045.5 364.1C1044 366.9 1043.5 367.2 1040.3 366.7C1037.6 366.2 1036.9 366.4 1037.4 367.5C1037.7 368.3 1037.5 369.2 1037 369.5C1035.4 370.5 1035.9 375.3 1038 378.8C1039.1 380.6 1040 383.5 1040 385.2C1040 389.8 1042.3 391.9 1046.8 391.3C1049.1 391 1052.1 391.4 1054.4 392.4C1062.2 395.6 1067.8 393.7 1066.7 388.2C1066.2 385.6 1066.6 384.5 1069 382C1071.2 379.8 1072 378 1072 375.5C1072 372.6 1072.4 371.9 1074.5 371.4C1077.5 370.7 1077.6 370 1075 366.7C1072.3 363.3 1072.5 359.2 1075.5 354.8C1076.9 352.8 1078 350.5 1078 349.8C1078 348.6 1070.1 340 1069 340C1068.7 340 1067.7 341.8 1066.7 344Z" fill="#f5891d" fill-rule="nonzero" opacity="1" stroke="none"/>
<path d="M977.6 348.7C976.3 350 977.1 351.6 979.9 353.2C981.6 354.1 984 356.6 985.4 358.8C986.8 361 988.8 363.1 989.9 363.5C991 363.8 992.6 365.3 993.4 366.8C997.3 374.3 1000.3 381.1 1002 386.3C1004 392.6 1009.6 398.8 1016 401.6C1019.3 403.1 1019.5 403.1 1021.3 400.9C1022.4 399.6 1022.9 397.8 1022.6 396.5C1022.3 395.3 1022.9 392.7 1024 390.7L1026 387L1023.5 387C1022.1 387 1021 386.5 1021 386C1021 385.4 1019.1 383.2 1016.9 381C1013.7 377.9 1013 376.7 1013.8 375.7C1014.7 374.7 1014 373.6 1010.7 370.9C1008.4 369 1004.8 366.4 1002.8 365.1C1000.7 363.9 998.2 361.5 997.3 359.8C996 357.7 992.8 355.5 986.9 352.4C982.1 350.1 978 348.4 977.6 348.7Z" fill="#f5891d" fill-rule="nonzero" opacity="1" stroke="none"/>
<path d="M1100.5 368.1C1098.1 369.5 1096.5 369.7 1092.5 369C1084.5 367.6 1083.4 367.8 1082.2 370.5C1081.5 371.9 1081 374.2 1081 375.5C1081 376.8 1080.1 379.9 1079 382.4C1077.5 386.1 1077.3 387.6 1078.1 389.8C1078.7 391.3 1079.2 394.6 1079.1 397.2C1079 401.3 1079.3 402 1081 402C1083.9 402 1085.2 398.7 1084.4 393C1084 389.7 1084.1 388 1084.8 388C1086 388 1087.4 389.9 1087.5 391.5C1087.8 394.4 1089.4 398.6 1090.7 399.7C1094.7 402.9 1096.4 397 1093.3 390.8C1092.4 389 1091.3 386.7 1090.8 385.7C1090.1 384.3 1090.5 383.4 1092.4 381.9C1093.9 380.8 1095 379.4 1095 378.9C1095 377.6 1090.3 377.8 1087.9 379.2C1086.2 380.3 1085.7 380.2 1084.4 378.5C1081 373.9 1084.8 369.6 1090.2 372C1097.2 375 1104.6 373 1103.8 368.3C1103.5 366.4 1103.4 366.4 1100.5 368.1Z" fill="#f5891d" fill-rule="nonzero" opacity="1" stroke="none"/>
<path d="M1128.3 377.7C1127 377.9 1126 378.5 1126 378.9C1126 380 1129.4 383 1130.7 383C1132.1 383 1135.5 386.9 1134.7 387.6C1133.5 388.8 1137 394 1138.8 393.7C1141.1 393.4 1154.1 397.9 1156.2 399.7C1158.7 401.9 1159.7 409 1157.6 410.2C1155.2 411.6 1155.7 413 1158.5 413C1159.9 413 1163.3 414.1 1166 415.5C1172.9 419 1175.2 418.7 1180.1 414C1182.4 411.8 1184.6 410 1185.1 410C1185.5 410 1188 412.5 1190.6 415.5C1194.1 419.6 1196.6 421.4 1200.2 422.6C1202.8 423.4 1205.5 424 1206.2 423.8C1206.8 423.6 1204.6 420.6 1201.3 417.1C1194.6 410.3 1192.9 407 1196.1 407C1197.1 407 1198 406.4 1198 405.6C1198 403.7 1193.3 400 1190.9 400C1189.7 400 1189 399.3 1189 398.1C1189 395.7 1184.6 392.3 1176 388C1169.5 384.7 1159.6 381.1 1157.1 381C1156.4 381 1153.9 383.1 1151.5 385.7L1147.2 390.3L1143.6 386.4C1140.7 383.3 1140.1 382 1140.6 379.7C1141.2 377 1141.1 377 1135.8 377.1C1132.9 377.2 1129.5 377.5 1128.3 377.7Z" fill="#f5891d" fill-rule="nonzero" opacity="1" stroke="none"/>
<path d="M1024.5 402.7C1019.7 403.9 1018.5 407 1022.9 407C1024.6 407 1027.1 408.1 1028.8 409.5C1030.8 411.1 1033.9 412.4 1037.7 413C1051.4 415.3 1056.6 416.3 1058.2 417.1C1059.3 417.7 1061.5 417.5 1064.1 416.6C1066.9 415.6 1068.9 415.4 1070.1 416C1071.1 416.6 1075.2 416.9 1079.3 416.8C1083.4 416.8 1087.2 417 1087.9 417.4C1088.5 417.8 1090.5 417.7 1092.3 417.2C1094 416.6 1097.1 415.9 1099 415.6L1102.5 415L1100.1 417.1C1098.8 418.2 1097.1 419.4 1096.5 419.8C1095.8 420.2 1094.9 421.6 1094.5 422.9C1093.9 425 1094.5 424.7 1099.2 420.7C1102.2 418.2 1105.9 415.6 1107.5 415C1110.2 414 1110.3 413.7 1108.7 412.9C1107.5 412.2 1105.2 412.3 1101.5 413.1C1097.4 414 1095.4 414 1093.5 413.2C1091.6 412.3 1090.3 412.4 1087.8 413.4C1085.2 414.5 1083.3 414.6 1079 413.8C1076 413.2 1070.8 412.6 1067.5 412.5C1056.5 412.2 1049.9 410.1 1054.5 408.4C1057.1 407.4 1055 406 1050.9 406C1048.7 406 1045.8 405.3 1044.4 404.3C1042 402.8 1041.9 402.8 1041.3 404.8C1040.5 408 1034.7 407.8 1030.8 404.5C1029.2 403.1 1027.5 402.1 1027.2 402.1C1026.8 402.2 1025.6 402.5 1024.5 402.7Z" fill="#f5891d" fill-rule="nonzero" opacity="1" stroke="none"/>
<path d="M1130.3 429C1130.9 431.6 1130.6 432 1128.2 432.5C1126.7 432.9 1124.8 433.5 1124 433.9C1122.1 434.9 1118 442.1 1118.6 443.2C1118.9 443.6 1119 444 1118.8 444C1118.6 444 1117 444.4 1115.2 444.9C1112.2 445.8 1111.8 445.6 1110.8 443.4C1108.6 438.7 1102.5 439.3 1101.8 444.3C1101.6 445.5 1100.8 446.5 1099.9 446.5C1099 446.5 1096.5 448.4 1094.2 450.8C1090.8 454.3 1089.9 454.8 1089.4 453.6C1088.9 452.2 1088.5 452.3 1086.9 454.1C1085.8 455.3 1085 457.2 1085 458.3C1085 462.1 1078 467.5 1069.5 470.3C1065.1 471.8 1060.9 473 1060.2 473C1059.5 473 1056.8 474.5 1054.2 476.2C1051.6 478 1048.8 479.5 1048 479.5C1047 479.5 1046.4 480.8 1046.2 483.5C1046 485.7 1045.2 488.2 1044.4 489.1C1043.3 490.3 1043.2 491.4 1043.9 493.3C1044.7 495.4 1044.5 496.1 1042.8 497.2C1041 498.4 1040.9 498.9 1041.9 500.9C1042.7 502.3 1043.2 507.8 1043.3 514.9C1043.5 524.4 1043.2 527.3 1041.6 530.8C1040.6 533.1 1039.1 535 1038.3 535C1035.8 535 1036.9 538.9 1040 540.5C1044.1 542.6 1046 542.4 1052.3 539C1057 536.5 1059.1 536 1064.9 536C1069.8 536 1072.1 535.6 1072.7 534.6C1075 530.7 1092.1 525.5 1102.2 525.7C1110.9 525.8 1119.4 532.3 1117.4 537.4C1116.3 540.2 1119.9 540.6 1122.3 537.8C1125 534.7 1130 531.6 1130 533C1130 533.5 1128.7 535.2 1127 536.7C1123.4 539.9 1123 541.9 1126.5 539.6C1129.6 537.5 1129.9 537.6 1129.3 540C1129 541.1 1127 542.7 1124.9 543.7C1120.8 545.6 1120.2 546.5 1122.4 547.3C1123.2 547.6 1124.8 546.8 1126.1 545.4C1129.3 542 1130.3 542.4 1129.7 546.9C1129 552.3 1131.7 556.5 1136.7 557.9C1141.9 559.4 1144.5 559.3 1146 557.5C1147.6 555.6 1149 555.6 1149 557.4C1149 558.1 1149.6 559.3 1150.3 559.9C1151.4 560.7 1152.7 560.2 1156.1 557.6C1158.7 555.6 1162.1 554 1164.4 553.7C1166.5 553.4 1168.5 552.8 1168.9 552.3C1172.1 547.4 1186.4 531.1 1188.3 530.1C1192.4 527.9 1199 515.5 1202 504.5L1204.7 494.4L1201.9 490.5C1200.4 488.3 1198.8 485.3 1198.5 483.8C1198.1 482.2 1196.9 480.4 1195.8 479.6C1194.6 478.7 1193.7 476.8 1193.5 474.8C1193.3 472.7 1191.9 470 1189.5 467.2C1185.6 462.7 1183 456 1183 450.4C1183 445.2 1181.3 441.8 1179.1 442.5C1177.5 443 1177.1 442.4 1176.5 438.8C1173.8 421.8 1171.6 421.9 1168.6 439.5C1166.9 449.3 1162.7 458 1159.8 458C1157.1 458 1153.6 455.5 1147.6 449.2L1142.3 443.7L1145.2 439.4C1146.8 437 1148.5 434.8 1149.1 434.5C1150.2 433.7 1150.2 432.9 1149.1 431.1C1148.4 430 1147.6 430 1144.8 431C1141.8 432.1 1140.9 432 1137.3 430.1C1135 429 1132.9 427.6 1132.5 427C1131.1 424.8 1129.8 426.1 1130.3 429Z" fill="#f5891d" fill-rule="nonzero" opacity="1" stroke="none"/>
<path d="M781.8 436.1C779.9 438.5 777.4 441.9 776.2 443.6C774.9 445.5 771.9 447.7 768.6 449.1C761.8 452 759.3 456.3 761 462C762.6 467.4 762.2 471 759.6 475.4C757.5 479 756.3 485.5 756.9 490.8C757.1 493.2 762.2 497 765.1 497C770.4 497 773.5 492.7 777.1 480.5C778.8 474.4 780.6 467.7 781.1 465.5C781.5 463.3 782.6 459.7 783.5 457.6C784.4 455.5 784.9 452.8 784.6 451.7C784.3 450.4 784.7 449.6 786.1 449.3C787.7 448.8 788 447.9 788 442.6C787.9 439.3 787.3 435.4 786.6 434.1L785.3 431.8L781.8 436.1Z" fill="#f5891d" fill-rule="nonzero" opacity="1" stroke="none"/>
<path d="M1265.6 542.8C1265.3 544.8 1265 547.7 1265 549.2C1265 553.5 1262 558.8 1258.8 560.1C1256.2 561.2 1256.1 561.4 1257.5 563C1259.6 565.3 1259.4 566.6 1256.8 568.4C1254 570.4 1253 570.4 1253 568.5C1253 567.2 1252.6 567.1 1251 568C1249.9 568.6 1248.4 569 1247.7 568.8C1247 568.6 1244.6 569.9 1242.5 571.6C1240.3 573.3 1235.5 576.2 1231.9 578.2C1228.3 580.2 1221.2 584.3 1216.1 587.5L1206.8 593.2L1209.9 595.1C1213 597 1213.1 597 1217.3 594.9C1219.6 593.7 1224 590.8 1227 588.5C1230 586.1 1233.9 583.9 1235.7 583.5C1237.6 583.1 1239.2 582.1 1239.5 580.9C1239.9 579.9 1241.6 578.3 1243.3 577.4C1245.1 576.5 1247.5 574.9 1248.7 573.8C1250 572.6 1252.5 571.7 1254.7 571.6C1259.1 571.4 1267.5 566.2 1268.5 563C1268.8 561.9 1270 561 1271 561C1272.9 561 1279 555.6 1279 553.8C1279 553.2 1278.2 553.1 1277.3 553.5C1274 554.8 1272.5 554.5 1271.5 552.2C1271 551 1270.2 550 1269.7 550C1269.2 550 1269.2 548 1269.5 545.6C1270.1 541.8 1269.9 541 1268.2 540.1C1266.5 539.2 1266.2 539.5 1265.6 542.8Z" fill="#f5891d" fill-rule="nonzero" opacity="1" stroke="none"/>
<path d="M1138.1 572.5C1135.5 580.8 1135.5 580.8 1138.3 581.2C1142.1 581.9 1147.6 578.1 1150.5 572.9L1153.1 568L1148.5 568.6C1145 569.1 1143.5 568.9 1142.1 567.5C1140.2 565.9 1140.1 566 1138.1 572.5Z" fill="#f5891d" fill-rule="nonzero" opacity="1" stroke="none"/>
</g>
</g>
</svg>
