<?xml version="1.0" encoding="UTF-8" standalone="no"?>
<!DOCTYPE svg PUBLIC "-//W3C//DTD SVG 1.1//EN" "http://www.w3.org/Graphics/SVG/1.1/DTD/svg11.dtd">
<!-- Created with Vectornator (http://vectornator.io/) -->
<svg height="100%" stroke-miterlimit="10" style="fill-rule:nonzero;clip-rule:evenodd;stroke-linecap:round;stroke-linejoin:round;" version="1.1" viewBox="0 0 512 512" width="100%" xml:space="preserve" xmlns="http://www.w3.org/2000/svg" xmlns:vectornator="http://vectornator.io" xmlns:xlink="http://www.w3.org/1999/xlink">
<defs/>
<clipPath id="ArtboardFrame">
<rect height="512" width="512" x="0" y="0"/>
</clipPath>
<g clip-path="url(#ArtboardFrame)" id="Layer-1" vectornator:layerName="Layer 1">
<path d="M256 6.24662C114.591 6.24662-0.077082 120.889-0.077082 262.324C-0.077082 375.461 73.2968 471.45 175.044 505.31C187.842 507.681 192.54 499.755 192.54 492.992C192.54 486.889 192.303 466.713 192.193 445.315C120.952 460.806 105.919 415.101 105.919 415.101C94.2705 385.507 77.4864 377.632 77.4864 377.632C54.2526 361.739 79.2378 362.065 79.2378 362.065C104.952 363.872 118.492 388.458 118.492 388.458C141.332 427.603 178.398 416.285 193.011 409.741C195.314 393.195 201.946 381.894 209.269 375.499C152.391 369.028 92.5997 347.066 92.5997 248.945C92.5997 220.991 102.603 198.143 118.984 180.21C116.325 173.76 107.56 147.715 121.469 112.442C121.469 112.442 142.973 105.564 191.904 138.695C212.331 133.021 234.238 130.176 256 130.074C277.762 130.176 299.686 133.021 320.151 138.695C369.027 105.564 390.501 112.442 390.501 112.442C404.44 147.715 395.675 173.76 393.016 180.21C409.435 198.143 419.366 220.991 419.366 248.945C419.366 347.304 359.46 368.956 302.438 375.296C311.623 383.242 319.807 398.826 319.807 422.717C319.807 456.981 319.515 484.557 319.515 492.992C319.515 499.81 324.12 507.791 337.1 505.281C438.796 471.382 512.077 375.427 512.077 262.324C512.077 120.889 397.426 6.24662 256 6.24662" fill="#ffffff" fill-rule="evenodd" opacity="1" stroke="none"/>
</g>
</svg>
